#!OML:ASF E:\emotionWalksFemale\Project 1\Capture day 1\Session 1\Female1.ASF
:FULLY-SPECIFIED
:DEGREES
382
root 6.29901 15.7499 20.7973 194.487 74.6741 -531.193
lowerback 11.8392 1.3594 -0.0828843
upperback -3.49683 1.7921 -0.230247
thorax -10.4341 0.856528 -0.571763
lowerneck -6.9821 -8.34843 -11.2851
upperneck -2.69042 -10.2727 11.15
head 1.51045 -4.86768 4.73414
rclavicle -1.17034e-014 -7.15625e-015
rhumerus -3.6522 26.5965 -25.1294
rradius 78.3273
rwrist -5.17123
rhand 8.12926 -61.8131
rfingers 7.12502
rthumb 33.3499 631.261
lclavicle -1.17034e-014 -7.15625e-015
lhumerus -28.2291 -1.67769 13.3509
lradius 30.6932
lwrist -22.5914
lhand 23.5545 -22.3914
lfingers 7.12502
lthumb 47.8308 -0.0999877
rfemur -21.1716 5.20169 26.2819
rtibia 30.209
rfoot -19.0947 -29.8233
rtoes 9.26853
lfemur -27.6682 -9.55779 -17.5047
ltibia 44.6413
lfoot -23.0086 4.32442
ltoes -23.1173
383
root 6.2964 15.7979 20.7747 192.863 75.4254 -532.514
lowerback 11.0831 1.54 -0.477726
upperback -3.39312 1.95934 -0.42303
thorax -9.87926 0.959086 -0.565534
lowerneck -6.62581 -8.16714 -11.374
upperneck -2.37656 -10.0953 11.4324
head 1.54915 -4.79064 4.85195
rclavicle 7.21588e-014 -3.97569e-015
rhumerus -6.33005 27.4445 -26.097
rradius 80.0174
rwrist -4.97537
rhand 8.69004 -62.0198
rfingers 7.12502
rthumb 33.8829 631.17
lclavicle 7.21588e-014 -3.97569e-015
lhumerus -29.8176 -0.997593 13.4307
lradius 30.6048
lwrist -23.8929
lhand 23.3614 -22.3751
lfingers 7.12502
lthumb 47.6526 -0.00185807
rfemur -20.3058 4.35979 25.9853
rtibia 31.5529
rfoot -19.2458 -29.029
rtoes 9.03291
lfemur -26.1638 -10.0477 -17.7815
ltibia 45.4579
lfoot -23.319 -0.606411
ltoes 9.85245
384
root 6.27011 15.8129 20.775 195.166 75.1018 -530.197
lowerback 10.5847 1.36288 -0.0679689
upperback -3.54792 1.81504 -0.118613
thorax -9.75335 0.877858 -0.431064
lowerneck -6.37598 -8.01651 -11.4065
upperneck -2.03061 -9.94743 11.3017
head 1.5881 -4.73129 4.82965
rclavicle 3.70236e-015 -1.19271e-015
rhumerus -8.99983 28.1869 -27.2456
rradius 81.5356
rwrist -4.75461
rhand 9.21166 -61.9471
rfingers 7.12502
rthumb 34.3783 631.354
lclavicle 3.70236e-015 -1.19271e-015
lhumerus -31.8739 -0.898365 13.5592
lradius 30.8795
lwrist -23.9398
lhand 23.7178 -22.159
lfingers 7.12502
lthumb 47.9814 0.0625046
rfemur -19.8761 3.18848 27.076
rtibia 32.8095
rfoot -18.9781 -28.8988
rtoes 6.49401
lfemur -25.478 -10.902 -16.6713
ltibia 45.4682
lfoot -22.2814 -3.60827
ltoes 26.7588
385
root 6.25059 15.7731 20.7691 195.056 75.0343 -529.997
lowerback 10.4222 1.27101 -0.00433834
upperback -3.64049 1.71332 -0.00763794
thorax -9.76143 0.829831 -0.326488
lowerneck -6.03817 -7.89614 -11.4738
upperneck -1.74542 -9.84251 11.2086
head 1.60382 -4.69498 4.82566
rclavicle 2.64756e-014 -1.66979e-014
rhumerus -12.0377 28.912 -28.6641
rradius 83.0352
rwrist -4.67859
rhand 9.40096 -61.9296
rfingers 7.12502
rthumb 34.558 631.412
lclavicle 2.64756e-014 -1.66979e-014
lhumerus -33.8367 -0.237698 13.6124
lradius 30.9346
lwrist -24.2816
lhand 21.8507 -22.2885
lfingers 7.12502
lthumb 46.2551 0.699105
rfemur -18.9972 2.10807 27.4662
rtibia 33.9192
rfoot -18.6386 -28.5097
rtoes 3.35027
lfemur -23.9626 -9.05496 -18.0661
ltibia 44.3326
lfoot -19.5754 7.81892
ltoes -45.0609
386
root 6.24636 15.768 20.7738 195.487 75.6879 -528.944
lowerback 10.4791 1.497 -0.212206
upperback -3.67093 1.98991 0.0254798
thorax -9.83662 0.976863 -0.228134
lowerneck -5.70846 -7.8256 -11.2673
upperneck -1.40646 -9.82433 11.1598
head 1.63596 -4.70085 4.78513
rclavicle -2.27484e-014 -3.97569e-015
rhumerus -15.5948 29.4252 -30.6876
rradius 84.4849
rwrist -4.67352
rhand 9.51404 -61.8329
rfingers 7.12502
rthumb 34.6653 631.534
lclavicle -2.27484e-014 -3.97569e-015
lhumerus -35.5451 0.107425 13.5786
lradius 30.9982
lwrist -24.4979
lhand 22.28 -22.4289
lfingers 7.12502
lthumb 46.6528 0.388725
rfemur -17.5953 1.98255 27.8545
rtibia 34.6162
rfoot -17.49 -28.1048
rtoes -0.464694
lfemur -21.7325 -9.35339 -18.0049
ltibia 42.5393
lfoot -18.8427 8.03243
ltoes -45.4805
387
root 6.24713 15.7629 20.7802 195.942 76.3992 -527.777
lowerback 10.547 1.69986 -0.360878
upperback -3.62882 2.23892 0.0213859
thorax -9.8366 1.10535 -0.197158
lowerneck -5.70023 -7.7577 -10.9176
upperneck -0.79664 -9.79899 10.927
head 1.78123 -4.69557 4.64982
rclavicle -1.86733e-014 1.19271e-015
rhumerus -19.1873 29.798 -33.0479
rradius 85.8205
rwrist -4.71428
rhand 9.57931 -61.347
rfingers 7.12502
rthumb 34.7272 632.034
lclavicle -1.86733e-014 1.19271e-015
lhumerus -37.494 0.0106459 13.6729
lradius 31.4147
lwrist -24.0592
lhand 23.995 -22.1027
lfingers 7.12502
lthumb 48.2369 -0.00118013
rfemur -15.9362 2.033 28.2231
rtibia 34.9271
rfoot -16.3889 -27.6062
rtoes -3.59249
lfemur -19.1656 -9.60881 -17.9843
ltibia 40.0936
lfoot -18.4593 8.10335
ltoes -44.8414
388
root 6.23905 15.7508 20.7662 195.567 76.2999 -527.708
lowerback 10.4702 1.49118 -0.164397
upperback -3.62248 1.98524 -0.00393592
thorax -9.77514 0.970478 -0.284357
lowerneck -6.02237 -7.63111 -10.5147
upperneck -0.0242659 -9.66994 10.5076
head 2.00435 -4.63111 4.44206
rclavicle -1.95865e-014 1.19271e-015
rhumerus -22.4886 30.0943 -35.4321
rradius 86.9993
rwrist -4.8118
rhand 8.87839 -62.011
rfingers 7.12502
rthumb 34.0618 631.219
lclavicle -1.95865e-014 1.19271e-015
lhumerus -39.6647 0.524297 13.5821
lradius 31.6054
lwrist -24.0162
lhand 25.5381 -22.0401
lfingers 7.12502
lthumb 49.6547 -0.637961
rfemur -14.2882 1.49596 28.3828
rtibia 34.5738
rfoot -16.0509 -26.7288
rtoes -4.74272
lfemur -17.1159 -10.8927 -18.0593
ltibia 37.4811
lfoot -18.1235 8.51682
ltoes -44.213
389
root 6.236 15.7271 20.7618 195.124 76.4073 -527.614
lowerback 10.4915 1.42452 -0.217923
upperback -3.59157 1.88776 -0.000481671
thorax -9.75558 0.926739 -0.232287
lowerneck -6.21065 -7.62036 -10.1897
upperneck 0.606398 -9.69455 10.1388
head 2.18769 -4.64587 4.25984
rclavicle 2.05587e-014 -7.95139e-016
rhumerus -26.0055 30.1248 -37.895
rradius 88.015
rwrist -4.87867
rhand 8.97964 -61.9627
rfingers 7.12502
rthumb 34.1579 631.289
lclavicle 2.05587e-014 -7.95139e-016
lhumerus -41.5936 1.32554 13.4312
lradius 31.5381
lwrist -24.2036
lhand 26.7127 -21.9056
lfingers 7.12502
lthumb 50.7287 -1.0741
rfemur -12.3578 1.44163 28.5047
rtibia 33.7943
rfoot -15.7908 -25.8282
rtoes -6.97627
lfemur -15.0332 -12.3581 -18.2118
ltibia 35.007
lfoot -18.4262 9.12057
ltoes -41.341
390
root 6.23366 15.6934 20.758 194.927 76.5281 -527.225
lowerback 10.6067 1.48627 -0.117772
upperback -3.56077 1.98447 0.0041141
thorax -9.7863 0.966698 -0.304574
lowerneck -6.03105 -7.58418 -10.2859
upperneck 0.731817 -9.66757 10.1947
head 2.20087 -4.6374 4.29768
rclavicle 3.90627e-014 -5.1684e-015
rhumerus -29.9532 29.9994 -40.408
rradius 88.9547
rwrist -4.78193
rhand 9.11259 -61.8426
rfingers 7.12502
rthumb 34.2842 631.437
lclavicle 3.90627e-014 -5.1684e-015
lhumerus -43.5135 1.66693 13.6224
lradius 32.1216
lwrist -23.8558
lhand 28.5834 -21.387
lfingers 7.12502
lthumb 52.4289 -1.53958
rfemur -10.5861 1.47197 28.6864
rtibia 33.2589
rfoot -15.5287 -25.1687
rtoes -9.84562
lfemur -13.0075 -14.159 -18.3344
ltibia 32.6854
lfoot -19.7364 9.22
ltoes -32.5932
391
root 6.23509 15.6673 20.7606 195.418 77.1622 -526.226
lowerback 10.6481 1.74877 -0.313027
upperback -3.54007 2.31382 0.0716388
thorax -9.79893 1.13951 -0.185839
lowerneck -6.2027 -7.6718 -10.4947
upperneck 1.29848 -9.80419 10.4331
head 2.43413 -4.69522 4.37643
rclavicle 1.86112e-014 5.96354e-015
rhumerus -33.9427 29.7895 -42.9668
rradius 89.7432
rwrist -4.47834
rhand 8.38913 -61.6737
rfingers 7.12502
rthumb 33.5969 631.454
lclavicle 1.86112e-014 5.96354e-015
lhumerus -45.4183 1.23358 14.2989
lradius 32.6972
lwrist -22.8134
lhand 29.0875 -20.648
lfingers 7.12502
lthumb 52.8847 -1.08288
rfemur -8.72394 2.04691 28.8537
rtibia 32.1924
rfoot -15.1359 -24.5771
rtoes -11.1141
lfemur -10.9033 -18.1057 -17.846
ltibia 30.9522
lfoot -25.1508 0.564348
ltoes 39.8591
392
root 6.22198 15.5251 20.778 195.498 77.7064 -525.89
lowerback 10.6007 1.95516 -0.541792
upperback -3.59975 2.5606 0.0926148
thorax -9.84952 1.27355 -0.0815794
lowerneck -6.05453 -7.52685 -10.4239
upperneck 1.1273 -9.61663 10.4677
head 2.3386 -4.60509 4.39733
rclavicle -3.97445e-014 -8.74653e-015
rhumerus -37.8585 29.5359 -45.506
rradius 90.3568
rwrist -4.32175
rhand 9.33052 -60.9837
rfingers 7.12502
rthumb 34.4911 632.343
lclavicle -3.97445e-014 -8.74653e-015
lhumerus -47.1752 1.90487 14.5124
lradius 32.9197
lwrist -23.2029
lhand 27.6452 -20.2334
lfingers 7.12502
lthumb 51.5779 0.119669
rfemur -7.24838 2.5806 28.972
rtibia 30.9711
rfoot -15.1055 -24.1385
rtoes -12.875
lfemur -10.0046 -11.844 -19.7439
ltibia 29.6703
lfoot -11.9648 20.8891
ltoes -61.3136
393
root 6.21245 15.494 20.7757 194.472 77.7803 -526.908
lowerback 10.3478 2.00419 -0.689342
upperback -3.59678 2.59853 -0.00282377
thorax -9.69983 1.29877 -0.0983651
lowerneck -5.95846 -7.56402 -10.3241
upperneck 1.07654 -9.67768 10.4287
head 2.3074 -4.63851 4.37009
rclavicle 1.13363e-013 -4.77083e-015
rhumerus -41.5313 29.0434 -48.0552
rradius 90.7732
rwrist -4.46597
rhand 8.69688 -60.7067
rfingers 7.12502
rthumb 33.8894 632.485
lclavicle 1.13363e-013 -4.77083e-015
lhumerus -48.9482 1.65538 15.1856
lradius 33.337
lwrist -22.4511
lhand 26.7203 -20.0536
lfingers 7.12502
lthumb 50.7357 0.774054
rfemur -5.74021 2.72647 28.7562
rtibia 29.0321
rfoot -15.5154 -23.8764
rtoes -16.1488
lfemur -9.27887 -14.8243 -19.7173
ltibia 29.0601
lfoot -20.9377 16.8421
ltoes -43.3651
394
root 6.19828 15.4314 20.7751 193.02 77.6795 -528.589
lowerback 9.82841 1.99681 -0.788266
upperback -3.49652 2.56291 -0.188828
thorax -9.27975 1.28342 -0.212144
lowerneck -6.07921 -7.61245 -10.2614
upperneck 0.754004 -9.71704 10.6005
head 2.24222 -4.64873 4.41101
rclavicle -1.62134e-015 1.98785e-015
rhumerus -44.8213 27.9939 -50.5747
rradius 90.8778
rwrist -4.40839
rhand 7.85234 -60.3911
rfingers 7.12502
rthumb 33.0866 632.627
lclavicle -1.62134e-015 1.98785e-015
lhumerus -50.2495 2.35533 15.613
lradius 33.2446
lwrist -22.4205
lhand 26.6692 -20.4962
lfingers 7.12502
lthumb 50.6891 0.357106
rfemur -4.63674 3.20233 28.379
rtibia 26.7578
rfoot -16.522 -24.1115
rtoes -16.6996
lfemur -9.42243 -15.8855 -20.1418
ltibia 28.989
lfoot -22.2746 17.6046
ltoes -40.7116
395
root 6.18975 15.3605 20.7663 191.54 77.6757 -530.212
lowerback 9.54073 2.02378 -0.906794
upperback -3.52304 2.57652 -0.319961
thorax -9.13931 1.29423 -0.277068
lowerneck -6.01831 -7.61264 -10.0614
upperneck 0.423133 -9.7074 10.4918
head 2.11777 -4.64712 4.35588
rclavicle -2.50966e-014 4.37326e-015
rhumerus -48.1929 26.9112 -53.0454
rradius 90.7904
rwrist -3.88124
rhand 8.63266 -59.6792
rfingers 7.12502
rthumb 33.8283 633.499
lclavicle -2.50966e-014 4.37326e-015
lhumerus -51.5974 2.98572 16.0418
lradius 32.9765
lwrist -22.4924
lhand 26.6036 -21.0038
lfingers 7.12502
lthumb 50.6292 -0.117832
rfemur -3.18864 4.40765 27.9892
rtibia 23.7409
rfoot -17.4811 -25.1475
rtoes -17.5999
lfemur -9.71141 -16.3802 -20.8277
ltibia 29.3382
lfoot -20.6003 21.0168
ltoes -47.782
